<?xml version="1.0" standalone="no"?>
<!DOCTYPE svg PUBLIC "-//W3C//DTD SVG 20010904//EN"
 "http://www.w3.org/TR/2001/REC-SVG-20010904/DTD/svg10.dtd">
<svg version="1.0" xmlns="http://www.w3.org/2000/svg"
 width="320.000000pt" height="320.000000pt" viewBox="0 0 320.000000 320.000000"
 preserveAspectRatio="xMidYMid meet">
<metadata>
Created by potrace 1.14, written by Peter Selinger 2001-2017
</metadata>
<g transform="translate(0.000000,320.000000) scale(0.100000,-0.100000)"
fill="#000000" stroke="none">
<path d="M795 2724 c-131 -35 -231 -135 -268 -269 -15 -53 -17 -138 -17 -790
0 -768 0 -769 45 -856 18 -34 27 -46 62 -83 12 -13 19 -27 16 -30 -4 -3 1 -6
11 -6 9 0 19 -7 22 -15 4 -8 10 -12 15 -9 5 3 9 1 9 -3 0 -5 7 -18 15 -29 10
-12 14 -14 12 -4 -2 8 -2 12 0 7 3 -4 9 -5 14 -2 5 4 6 -1 3 -9 -3 -9 -12 -16
-20 -16 -8 0 -14 -5 -14 -10 0 -8 6 -8 18 -1 13 7 22 5 37 -9 21 -19 21 -19
22 3 2 14 -1 17 -6 9 -6 -10 -10 -10 -20 1 -9 12 -8 16 3 20 9 4 18 2 21 -4 4
-5 10 -7 15 -4 5 3 7 -6 4 -19 -2 -14 0 -27 6 -31 5 -3 7 0 4 8 -3 8 2 14 11
14 8 0 15 -4 15 -9 0 -5 5 -6 11 -2 14 9 -11 25 -26 17 -5 -4 -6 -2 -2 2 10
11 37 16 37 6 0 -4 9 -7 20 -8 13 -1 18 2 13 10 -3 7 3 3 15 -7 15 -13 22 -15
22 -6 0 7 3 10 6 7 4 -4 1 -13 -6 -22 -7 -9 -10 -18 -6 -22 3 -3 6 -1 6 6 0 7
7 11 15 8 8 -4 17 -1 21 5 4 6 3 8 -3 5 -5 -3 -10 0 -10 8 0 10 5 10 23 -3 12
-9 19 -21 16 -26 -3 -5 0 -6 7 -2 9 6 8 13 -6 29 -16 19 -16 20 0 8 9 -7 17
-10 18 -5 0 5 4 -1 9 -13 6 -13 17 -21 29 -20 20 1 20 2 4 27 -13 20 -14 23
-1 13 8 -7 19 -9 23 -5 5 4 5 2 2 -4 -4 -7 7 -11 28 -11 19 0 35 5 35 11 1 6
7 0 15 -14 8 -14 14 -21 15 -16 0 4 12 0 28 -10 23 -15 25 -15 13 -1 -8 10 -9
17 -3 17 6 0 14 -5 17 -10 4 -6 11 -7 17 -4 7 5 9 1 5 -9 -11 -30 2 -18 23 21
11 20 18 27 15 15 -6 -22 3 -29 29 -24 4 1 15 -4 24 -11 14 -12 14 -10 3 11
-9 15 -10 26 -3 33 7 7 10 4 9 -8 -2 -14 6 -20 26 -22 18 -2 25 -7 20 -15 -4
-8 -1 -7 9 1 11 9 18 9 21 2 3 -6 5 -6 3 1 -2 11 -20 18 -53 21 -7 1 -13 6
-13 11 0 5 8 6 18 2 9 -4 27 -8 40 -8 12 -1 22 -7 22 -14 0 -9 9 -12 25 -9 15
3 25 0 25 -7 0 -8 3 -8 9 1 4 8 19 11 35 8 15 -3 24 -1 21 5 -4 5 -11 6 -17 3
-7 -5 -8 -2 -3 6 6 10 12 8 27 -9 18 -23 18 -23 18 -2 0 12 5 21 11 21 5 0 7
-4 4 -10 -3 -5 -1 -10 4 -10 6 0 11 6 11 12 0 7 7 2 16 -10 8 -12 12 -28 9
-35 -4 -6 2 -2 12 11 16 20 21 21 31 9 7 -7 8 -18 4 -22 -4 -5 -1 -5 6 -1 9 6
10 11 3 20 -6 7 -7 17 -3 21 4 5 2 5 -4 2 -6 -3 -11 0 -11 8 0 13 3 13 18 -1
23 -21 69 -26 69 -7 0 8 4 12 9 9 5 -4 12 0 14 6 4 9 6 10 6 1 1 -7 11 -10 25
-7 14 2 27 0 31 -6 4 -6 -1 -7 -12 -4 -15 5 -15 4 -3 -4 8 -6 17 -9 21 -6 4 2
10 -2 13 -8 3 -7 3 -3 0 10 -3 12 -1 22 5 22 6 0 11 -7 11 -15 0 -9 6 -12 15
-9 8 4 21 1 29 -5 10 -9 15 -8 19 2 5 14 45 15 66 2 6 -3 14 1 17 9 3 9 10 16
16 16 5 0 6 -4 3 -10 -9 -15 4 -12 20 4 8 7 11 17 7 21 -4 5 -1 5 6 1 7 -4 21
-2 30 6 15 12 16 11 3 -4 -17 -23 -3 -23 29 -1 24 16 24 16 11 0 -17 -21 -3
-22 26 -2 20 14 22 14 18 -3 -2 -10 1 -25 7 -33 8 -11 9 -10 4 4 -4 12 0 17
14 17 11 0 20 -6 20 -12 0 -9 3 -9 9 1 7 11 10 11 14 -3 4 -14 5 -14 3 1 -1
10 -7 18 -14 18 -6 0 -12 3 -12 8 0 4 0 10 0 13 0 4 6 1 14 -5 8 -7 17 -8 20
-3 3 5 22 8 43 6 21 -1 41 4 45 10 5 8 8 7 8 -2 0 -8 5 -10 13 -5 14 9 19 10
53 12 14 0 22 5 19 11 -3 6 1 7 9 4 9 -3 16 -1 16 6 0 6 5 8 10 5 6 -3 10 -1
10 5 0 6 4 9 9 6 5 -3 12 1 15 10 4 9 13 14 22 10 8 -3 13 -2 10 3 -3 5 8 19
24 32 16 13 30 30 30 37 0 6 7 12 15 12 8 0 14 3 13 7 0 5 11 34 27 67 15 32
30 75 33 95 7 49 7 1468 -1 1510 -17 98 -112 223 -202 265 -22 10 -49 24 -60
30 -32 17 -1564 18 -1630 0z m406 -2144 c14 8 19 8 15 1 -4 -6 -2 -11 3 -11 6
0 11 -5 11 -11 0 -8 -4 -8 -14 0 -7 6 -20 9 -28 6 -8 -3 -21 2 -29 12 -13 16
-12 17 3 5 13 -10 22 -11 39 -2z m49 0 c0 -5 -2 -10 -4 -10 -3 0 -8 5 -11 10
-3 6 -1 10 4 10 6 0 11 -4 11 -10z m314 -2 c-3 -4 -11 -5 -19 -1 -21 7 -19 12
4 10 11 0 18 -5 15 -9z m186 8 c0 -3 -4 -8 -10 -11 -5 -3 -10 -1 -10 4 0 6 5
11 10 11 6 0 10 -2 10 -4z m141 -19 c-10 -9 -11 -8 -5 6 3 10 9 15 12 12 3 -3
0 -11 -7 -18z m45 6 c-3 -17 -26 -32 -26 -16 0 8 20 33 26 33 1 0 1 -8 0 -17z
m26 -5 c-7 -7 -12 -8 -12 -2 0 14 12 26 19 19 2 -3 -1 -11 -7 -17z m44 -15
c-3 -4 -6 -1 -6 6 0 7 -4 9 -10 6 -6 -4 -7 1 -3 11 6 15 7 15 15 -1 6 -9 7
-19 4 -22z m-971 17 c3 -5 1 -10 -4 -10 -6 0 -11 5 -11 10 0 6 2 10 4 10 3 0
8 -4 11 -10z m269 -5 c-4 -8 -8 -15 -10 -15 -2 0 -4 7 -4 15 0 8 4 15 10 15 5
0 7 -7 4 -15z m342 4 c3 -6 2 -15 -4 -21 -6 -6 -12 -6 -17 3 -5 8 -4 10 3 5 7
-4 12 -3 12 3 0 5 -6 12 -12 14 -10 4 -10 6 -1 6 6 1 15 -4 19 -10z m-176 -7
c0 -5 -7 -9 -15 -9 -8 0 -12 4 -9 9 3 4 9 8 15 8 5 0 9 -4 9 -8z"/>
<path d="M549 663 c-13 -16 -12 -17 4 -4 9 7 17 15 17 17 0 8 -8 3 -21 -13z"/>
<path d="M613 655 c0 -8 4 -12 9 -9 5 3 6 10 3 15 -9 13 -12 11 -12 -6z"/>
<path d="M657 639 c6 -23 9 -24 16 -5 3 8 0 17 -7 19 -10 4 -12 -1 -9 -14z"/>
<path d="M631 627 c-8 -10 -7 -14 2 -14 8 0 14 6 14 14 0 7 -1 13 -2 13 -2 0
-8 -6 -14 -13z"/>
<path d="M2520 631 c0 -6 4 -13 10 -16 6 -3 7 1 4 9 -7 18 -14 21 -14 7z"/>
<path d="M590 619 c0 -5 5 -7 10 -4 6 3 10 8 10 11 0 2 -4 4 -10 4 -5 0 -10
-5 -10 -11z"/>
<path d="M679 623 c-5 -29 -5 -53 -1 -48 7 6 12 55 6 55 -2 0 -5 -3 -5 -7z"/>
<path d="M2490 626 c0 -2 7 -9 15 -16 13 -11 14 -10 9 4 -5 14 -24 23 -24 12z"/>
<path d="M2555 619 c-3 -4 2 -6 10 -5 21 3 28 13 10 13 -9 0 -18 -4 -20 -8z"/>
<path d="M2485 596 c10 -14 19 -26 22 -26 7 0 -17 39 -28 46 -6 3 -3 -5 6 -20z"/>
<path d="M2456 595 c7 -17 6 -18 -8 -7 -12 10 -18 9 -28 -3 -9 -10 -9 -15 -1
-15 6 0 11 5 11 11 0 8 4 8 14 0 18 -15 34 5 17 22 -9 9 -10 7 -5 -8z"/>
<path d="M2374 588 c-3 -5 -11 -5 -17 -2 -7 4 -8 3 -4 -1 12 -14 35 -14 46 -1
8 9 6 13 -5 13 -8 0 -17 -4 -20 -9z"/>
<path d="M720 586 c0 -2 7 -7 16 -10 8 -3 12 -2 9 4 -6 10 -25 14 -25 6z"/>
<path d="M866 579 c2 -4 -1 -9 -8 -11 -9 -3 -9 -6 0 -12 7 -4 12 -2 12 3 0 6
7 11 15 11 8 0 15 4 15 8 0 4 -9 8 -19 8 -11 0 -18 -3 -15 -7z"/>
<path d="M2273 572 c1 -14 5 -18 11 -12 7 7 6 14 -1 21 -9 9 -12 7 -10 -9z"/>
<path d="M2303 567 c-1 -11 -1 -18 0 -16 2 2 8 11 15 20 9 12 9 16 -1 16 -7 0
-14 -9 -14 -20z"/>
<path d="M1077 564 c-3 -4 1 -13 11 -20 12 -9 19 -9 24 -1 4 7 12 6 25 -4 16
-12 17 -12 6 2 -7 9 -11 18 -8 20 2 3 -4 5 -15 5 -10 0 -16 -4 -14 -8 3 -4 1
-8 -5 -8 -5 0 -11 5 -13 11 -2 5 -7 7 -11 3z"/>
<path d="M2066 562 c-2 -4 6 -12 19 -18 22 -11 23 -10 12 7 -13 20 -23 24 -31
11z"/>
<path d="M2110 561 c0 -5 7 -11 14 -14 10 -4 13 -1 9 9 -6 15 -23 19 -23 5z"/>
<path d="M2150 561 c0 -5 5 -13 10 -16 6 -3 10 -2 10 4 0 5 -4 13 -10 16 -5 3
-10 2 -10 -4z"/>
<path d="M1765 552 c-6 -6 4 -22 15 -22 4 0 10 6 13 13 5 13 -17 20 -28 9z"/>
<path d="M995 541 c-3 -5 -2 -12 3 -15 5 -3 9 1 9 9 0 17 -3 19 -12 6z"/>
</g>
</svg>
